<svg width="18" height="19" viewBox="0 0 18 19" fill="none" xmlns="http://www.w3.org/2000/svg">
<path opacity="0.4" d="M9 17C13.1421 17 16.5 13.6421 16.5 9.5C16.5 5.35786 13.1421 2 9 2C4.85786 2 1.5 5.35786 1.5 9.5C1.5 13.6421 4.85786 17 9 17Z" fill="#8F8AA0"/>
<path d="M12 8.9375H9.5625V6.5C9.5625 6.1925 9.3075 5.9375 9 5.9375C8.6925 5.9375 8.4375 6.1925 8.4375 6.5V8.9375H6C5.6925 8.9375 5.4375 9.1925 5.4375 9.5C5.4375 9.8075 5.6925 10.0625 6 10.0625H8.4375V12.5C8.4375 12.8075 8.6925 13.0625 9 13.0625C9.3075 13.0625 9.5625 12.8075 9.5625 12.5V10.0625H12C12.3075 10.0625 12.5625 9.8075 12.5625 9.5C12.5625 9.1925 12.3075 8.9375 12 8.9375Z" fill="#8F8AA0"/>
</svg>
