<svg width="14" height="14" viewBox="0 0 14 14" fill="none" xmlns="http://www.w3.org/2000/svg">
<path d="M6.87858 0.333496C3.19858 0.333496 0.211914 3.32016 0.211914 7.00016C0.211914 10.6802 3.19858 13.6668 6.87858 13.6668C10.5586 13.6668 13.5452 10.6802 13.5452 7.00016C13.5452 3.32016 10.5586 0.333496 6.87858 0.333496ZM1.54525 7.00016C1.54525 4.0535 3.93191 1.66683 6.87858 1.66683C8.11191 1.66683 9.24525 2.08683 10.1452 2.7935L2.67191 10.2668C1.96525 9.36683 1.54525 8.2335 1.54525 7.00016ZM6.87858 12.3335C5.64525 12.3335 4.51191 11.9135 3.61191 11.2068L11.0852 3.7335C11.7919 4.6335 12.2119 5.76683 12.2119 7.00016C12.2119 9.94683 9.82525 12.3335 6.87858 12.3335Z" fill="#FBFAFC"/>
</svg>
