<svg width="16" height="16" viewBox="0 0 16 16" fill="none" xmlns="http://www.w3.org/2000/svg">
<path opacity="0.4" d="M8.00065 14.6668C11.6825 14.6668 14.6673 11.6821 14.6673 8.00016C14.6673 4.31826 11.6825 1.3335 8.00065 1.3335C4.31875 1.3335 1.33398 4.31826 1.33398 8.00016C1.33398 11.6821 4.31875 14.6668 8.00065 14.6668Z" fill="#8F8AA0"/>
<path d="M10.4731 10.6197C10.3864 10.6197 10.2998 10.5997 10.2198 10.5463L8.1531 9.31301C7.63977 9.00635 7.25977 8.33301 7.25977 7.73968V5.00635C7.25977 4.73301 7.48643 4.50635 7.75977 4.50635C8.0331 4.50635 8.25977 4.73301 8.25977 5.00635V7.73968C8.25977 7.97968 8.45977 8.33301 8.66643 8.45301L10.7331 9.68635C10.9731 9.82635 11.0464 10.133 10.9064 10.373C10.8064 10.533 10.6398 10.6197 10.4731 10.6197Z" fill="#8F8AA0"/>
</svg>
