<svg width="20" height="20" viewBox="0 0 20 20" fill="none" xmlns="http://www.w3.org/2000/svg">
<path opacity="0.4" d="M10 20C15.5228 20 20 15.5228 20 10C20 4.47715 15.5228 0 10 0C4.47715 0 0 4.47715 0 10C0 15.5228 4.47715 20 10 20Z" fill="#7055DA"/>
<path d="M6.00141 12.7495C5.8114 12.7495 5.62141 12.6795 5.47141 12.5295L3.47141 10.5295C3.18141 10.2395 3.18141 9.75945 3.47141 9.46945L5.47141 7.46945C5.76141 7.17945 6.2414 7.17945 6.5314 7.46945C6.8214 7.75945 6.8214 8.23951 6.5314 8.52951L5.0614 9.99948L6.5314 11.4695C6.8214 11.7595 6.8214 12.2395 6.5314 12.5295C6.3814 12.6795 6.19141 12.7495 6.00141 12.7495Z" fill="#7055DA"/>
<path d="M14.0014 12.7495C13.8114 12.7495 13.6214 12.6795 13.4714 12.5295C13.1814 12.2395 13.1814 11.7595 13.4714 11.4695L14.9414 9.99948L13.4714 8.52951C13.1814 8.23951 13.1814 7.75945 13.4714 7.46945C13.7614 7.17945 14.2414 7.17945 14.5314 7.46945L16.5314 9.46945C16.8214 9.75945 16.8214 10.2395 16.5314 10.5295L14.5314 12.5295C14.3814 12.6795 14.1914 12.7495 14.0014 12.7495Z" fill="#7055DA"/>
<path d="M8.99816 13.0806C8.89816 13.0806 8.79817 13.0606 8.70817 13.0206C8.32817 12.8606 8.14817 12.4206 8.31817 12.0306L10.3182 7.36053C10.4782 6.98053 10.9182 6.80051 11.2982 6.97051C11.6782 7.13051 11.8582 7.57056 11.6882 7.96056L9.68817 12.6305C9.56817 12.9105 9.28816 13.0806 8.99816 13.0806Z" fill="#7055DA"/>
</svg>
