<svg width="18" height="20" viewBox="0 0 18 20" fill="none" xmlns="http://www.w3.org/2000/svg">
<path opacity="0.4" d="M18 5V15C18 18 16.5 20 13 20H4.99998C1.49998 20 -1.52588e-05 18 -1.52588e-05 15V5C-1.52588e-05 2 1.49998 0 4.99998 0H13C16.5 0 18 2 18 5Z" fill="#7055DA"/>
<path d="M15.5 7.25H13.5C11.98 7.25 10.75 6.02 10.75 4.5V2.5C10.75 2.09 11.09 1.75 11.5 1.75C11.91 1.75 12.25 2.09 12.25 2.5V4.5C12.25 5.19 12.81 5.75 13.5 5.75H15.5C15.91 5.75 16.25 6.09 16.25 6.5C16.25 6.91 15.91 7.25 15.5 7.25Z" fill="#7055DA"/>
<path d="M8.99998 11.75H4.99998C4.58998 11.75 4.24998 11.41 4.24998 11C4.24998 10.59 4.58998 10.25 4.99998 10.25H8.99998C9.40998 10.25 9.74998 10.59 9.74998 11C9.74998 11.41 9.40998 11.75 8.99998 11.75Z" fill="#7055DA"/>
<path d="M13 15.75H4.99998C4.58998 15.75 4.24998 15.41 4.24998 15C4.24998 14.59 4.58998 14.25 4.99998 14.25H13C13.41 14.25 13.75 14.59 13.75 15C13.75 15.41 13.41 15.75 13 15.75Z" fill="#7055DA"/>
</svg>
