<svg width="20" height="20" viewBox="0 0 20 20" fill="none" xmlns="http://www.w3.org/2000/svg">
<path opacity="0.4" d="M13.2056 11.053H11.2164C9.58473 11.053 8.25557 9.73303 8.25557 8.09219V6.10303C8.25557 5.72719 7.95307 5.41553 7.56807 5.41553H4.66223C2.54473 5.41553 0.830566 6.79053 0.830566 9.24719V15.3339C0.830566 17.7905 2.54473 19.1655 4.66223 19.1655H10.0614C12.1789 19.1655 13.8931 17.7905 13.8931 15.3339V11.7405C13.8931 11.3555 13.5814 11.053 13.2056 11.053Z" fill="#8F8AA0"/>
<path d="M15.332 0.83252H13.5262H12.527H9.93285C7.86119 0.83252 6.18368 2.15252 6.11035 4.50835C6.16535 4.50835 6.21118 4.49919 6.26618 4.49919H8.86035H9.85952H11.6654C13.7829 4.49919 15.497 5.87419 15.497 8.33085V10.1367V12.6209V14.4267C15.497 14.4817 15.4879 14.5275 15.4879 14.5734C17.532 14.5092 19.1637 13.1525 19.1637 10.76V8.95419V6.47002V4.66419C19.1637 2.20752 17.4495 0.83252 15.332 0.83252Z" fill="#8F8AA0"/>
<path d="M9.97947 5.55345C9.69531 5.26928 9.20947 5.46178 9.20947 5.85595V8.25762C9.20947 9.26595 10.062 10.091 11.107 10.091C11.7578 10.1001 12.6653 10.1001 13.4445 10.1001C13.8386 10.1001 14.0403 9.64178 13.7653 9.36678C12.7661 8.36762 10.9878 6.58012 9.97947 5.55345Z" fill="#8F8AA0"/>
</svg>
