<svg width="15" height="14" viewBox="0 0 15 14" fill="none" xmlns="http://www.w3.org/2000/svg">
<path d="M6.854 1.16663H5.68734C2.77067 1.16663 1.604 2.33329 1.604 5.24996V8.74996C1.604 11.6666 2.77067 12.8333 5.68734 12.8333H9.18734C12.104 12.8333 13.2707 11.6666 13.2707 8.74996V7.58329" stroke="#8F8AA0" stroke-linecap="round" stroke-linejoin="round"/>
<path d="M9.7941 1.76169L5.19743 6.35836C5.02243 6.53336 4.84743 6.87753 4.81243 7.12836L4.5616 8.88419C4.46826 9.52002 4.91743 9.96336 5.55326 9.87586L7.3091 9.62503C7.5541 9.59003 7.89826 9.41503 8.0791 9.24003L12.6758 4.64336C13.4691 3.85003 13.8424 2.92836 12.6758 1.76169C11.5091 0.595025 10.5874 0.968359 9.7941 1.76169Z" stroke="#8F8AA0" stroke-miterlimit="10" stroke-linecap="round" stroke-linejoin="round"/>
<path d="M9.13477 2.42078C9.5256 3.81494 10.6164 4.90578 12.0164 5.30244" stroke="#8F8AA0" stroke-miterlimit="10" stroke-linecap="round" stroke-linejoin="round"/>
</svg>
