<svg width="20" height="20" viewBox="0 0 20 20" fill="none" xmlns="http://www.w3.org/2000/svg">
<path opacity="0.4" d="M20 5.81V14.19C20 17 18.71 18.93 16.44 19.66C15.78 19.89 15.02 20 14.19 20H5.80998C4.97998 20 4.21998 19.89 3.55998 19.66C1.28998 18.93 -1.52588e-05 17 -1.52588e-05 14.19V5.81C-1.52588e-05 2.17 2.16998 0 5.80998 0H14.19C17.83 0 20 2.17 20 5.81Z" fill="#7055DA"/>
<path d="M16.4386 19.6607C15.7786 19.8907 15.0186 20.0007 14.1886 20.0007H5.80858C4.97858 20.0007 4.21858 19.8907 3.55858 19.6607C3.90858 17.0207 6.66858 14.9707 9.99858 14.9707C13.3286 14.9707 16.0886 17.0207 16.4386 19.6607Z" fill="#7055DA"/>
<path d="M13.5819 9.58002C13.5819 11.56 11.9819 13.17 10.0019 13.17C8.02186 13.17 6.42186 11.56 6.42186 9.58002C6.42186 7.60002 8.02186 6 10.0019 6C11.9819 6 13.5819 7.60002 13.5819 9.58002Z" fill="#7055DA"/>
</svg>
