<svg width="17" height="16" viewBox="0 0 17 16" fill="none" xmlns="http://www.w3.org/2000/svg">
<path opacity="0.4" d="M14.4799 10.8867C14.2932 11.3867 13.8999 11.7667 13.3865 11.94C12.6665 12.18 11.9265 12.36 11.1799 12.4867C11.1065 12.5 11.0332 12.5134 10.9599 12.52C10.8399 12.54 10.7199 12.5534 10.5999 12.5667C10.4532 12.5867 10.2999 12.6 10.1465 12.6134C9.72652 12.6467 9.31319 12.6667 8.89319 12.6667C8.46652 12.6667 8.03986 12.6467 7.61985 12.6067C7.43986 12.5934 7.26652 12.5734 7.09319 12.5467C6.99319 12.5334 6.89319 12.52 6.79986 12.5067C6.72652 12.4934 6.65319 12.4867 6.57986 12.4734C5.83986 12.3534 5.10652 12.1734 4.39319 11.9334C3.85986 11.7534 3.45319 11.3734 3.27319 10.8867C3.09319 10.4067 3.15986 9.8467 3.44652 9.3667L4.19986 8.11337C4.35986 7.84003 4.50652 7.31337 4.50652 6.99337V5.75337C4.50652 3.33337 6.47319 1.3667 8.89319 1.3667C11.3065 1.3667 13.2732 3.33337 13.2732 5.75337V6.99337C13.2732 7.31337 13.4199 7.84003 13.5865 8.11337L14.3399 9.3667C14.6132 9.83337 14.6665 10.38 14.4799 10.8867Z" fill="#8F8AA0"/>
<path d="M8.87727 7.17326C8.59727 7.17326 8.37061 6.94659 8.37061 6.66659V4.59993C8.37061 4.31993 8.59727 4.09326 8.87727 4.09326C9.15727 4.09326 9.38394 4.31993 9.38394 4.59993V6.66659C9.37727 6.94659 9.15061 7.17326 8.87727 7.17326Z" fill="#8F8AA0"/>
<path d="M10.7642 13.3402C10.4842 14.1135 9.74423 14.6668 8.87756 14.6668C8.35089 14.6668 7.83089 14.4535 7.46423 14.0735C7.25089 13.8735 7.09089 13.6068 6.99756 13.3335C7.08423 13.3468 7.17089 13.3535 7.26423 13.3668C7.41756 13.3868 7.57756 13.4068 7.73756 13.4202C8.11756 13.4535 8.50423 13.4735 8.89089 13.4735C9.27089 13.4735 9.65089 13.4535 10.0242 13.4202C10.1642 13.4068 10.3042 13.4002 10.4376 13.3802C10.5442 13.3668 10.6509 13.3535 10.7642 13.3402Z" fill="#8F8AA0"/>
</svg>
