<svg width="20" height="13" viewBox="0 0 20 13" fill="none" xmlns="http://www.w3.org/2000/svg">
<path fill-rule="evenodd" clip-rule="evenodd" d="M9.99992 0.166992C5.83325 0.166992 2.27492 2.75866 0.833252 6.41699C2.27492 10.0753 5.83325 12.667 9.99992 12.667C14.1666 12.667 17.7249 10.0753 19.1666 6.41699C17.7249 2.75866 14.1666 0.166992 9.99992 0.166992ZM9.99992 10.5837C7.69992 10.5837 5.83325 8.71699 5.83325 6.41699C5.83325 4.11699 7.69992 2.25033 9.99992 2.25033C12.2999 2.25033 14.1666 4.11699 14.1666 6.41699C14.1666 8.71699 12.2999 10.5837 9.99992 10.5837ZM9.99992 3.91699C8.61659 3.91699 7.49992 5.03366 7.49992 6.41699C7.49992 7.80033 8.61659 8.91699 9.99992 8.91699C11.3833 8.91699 12.4999 7.80033 12.4999 6.41699C12.4999 5.03366 11.3833 3.91699 9.99992 3.91699Z" fill="#969696"/>
</svg>
