<svg width="17" height="16" viewBox="0 0 17 16" fill="none" xmlns="http://www.w3.org/2000/svg">
<path opacity="0.4" d="M12.1867 5.17968C12.14 5.17301 12.0934 5.17301 12.0467 5.17968C11.0134 5.14634 10.1934 4.29967 10.1934 3.25967C10.1934 2.19967 11.0534 1.33301 12.12 1.33301C13.18 1.33301 14.0467 2.19301 14.0467 3.25967C14.04 4.29967 13.22 5.14634 12.1867 5.17968Z" fill="#8F8AA0"/>
<path opacity="0.4" d="M14.3617 9.80026C13.615 10.3003 12.5684 10.4869 11.6017 10.3603C11.855 9.81359 11.9884 9.20694 11.995 8.56694C11.995 7.90027 11.8484 7.26694 11.5684 6.7136C12.555 6.58027 13.6017 6.76693 14.355 7.26693C15.4084 7.96026 15.4084 9.10026 14.3617 9.80026Z" fill="#8F8AA0"/>
<path opacity="0.4" d="M4.79164 5.17968C4.83831 5.17301 4.88497 5.17301 4.93164 5.17968C5.96497 5.14634 6.78497 4.29967 6.78497 3.25967C6.78497 2.19967 5.92497 1.33301 4.85831 1.33301C3.79831 1.33301 2.93164 2.19301 2.93164 3.25967C2.93831 4.29967 3.75831 5.14634 4.79164 5.17968Z" fill="#8F8AA0"/>
<path opacity="0.4" d="M4.86479 8.56706C4.86479 9.21373 5.00479 9.82706 5.25812 10.3804C4.31812 10.4804 3.33813 10.2804 2.61813 9.80706C1.56479 9.10706 1.56479 7.96706 2.61813 7.26706C3.33146 6.78706 4.33812 6.59373 5.28479 6.7004C5.01146 7.2604 4.86479 7.89373 4.86479 8.56706Z" fill="#8F8AA0"/>
<path d="M8.58117 10.58C8.52784 10.5733 8.46784 10.5733 8.40784 10.58C7.18117 10.54 6.20117 9.53333 6.20117 8.29333C6.20117 7.02667 7.22117 6 8.49451 6C9.76117 6 10.7878 7.02667 10.7878 8.29333C10.7878 9.53333 9.81451 10.54 8.58117 10.58Z" fill="#8F8AA0"/>
<path d="M6.4132 11.9607C5.40654 12.6341 5.40654 13.7407 6.4132 14.4074C7.55987 15.1741 9.43987 15.1741 10.5865 14.4074C11.5932 13.7341 11.5932 12.6274 10.5865 11.9607C9.44654 11.1941 7.56654 11.1941 6.4132 11.9607Z" fill="#8F8AA0"/>
</svg>
