<svg width="16" height="16" viewBox="0 0 16 16" fill="none" xmlns="http://www.w3.org/2000/svg">
<path d="M0.0834961 7.52786C0.0965532 7.47936 0.111474 7.429 0.122666 7.3805C0.174895 7.16786 0.232719 7.11563 0.443499 7.08765C0.608956 7.0704 0.764959 7.00214 0.889902 6.89231C1.01485 6.78248 1.10255 6.63652 1.14087 6.47464C1.17918 6.31276 1.16622 6.14297 1.10377 5.98879C1.04133 5.8346 0.93248 5.70365 0.792311 5.61406C0.730801 5.57996 0.677342 5.53303 0.635557 5.47646C0.593772 5.41989 0.564637 5.355 0.55013 5.28618C0.535624 5.21737 0.536085 5.14623 0.55148 5.07761C0.566874 5.00899 0.596842 4.94448 0.639354 4.88845C0.659498 4.85549 0.686656 4.82737 0.718895 4.8061C0.751134 4.78482 0.787661 4.7709 0.825885 4.76534C0.902008 4.75446 0.97739 4.73889 1.05159 4.71871C1.19809 4.68204 1.33001 4.60179 1.42993 4.48855C1.52985 4.37532 1.59305 4.23443 1.61118 4.0845C1.64196 3.92858 1.62411 3.76697 1.56006 3.62152C1.49601 3.47607 1.38884 3.35379 1.25304 3.27123C1.19416 3.23187 1.1439 3.18096 1.10532 3.12157C1.06673 3.06219 1.04062 2.99557 1.02858 2.92578C1.01654 2.85599 1.01883 2.78449 1.03529 2.71561C1.05175 2.64673 1.08204 2.58191 1.12434 2.5251C1.15604 2.49151 1.19418 2.46462 1.23647 2.44604C1.27877 2.42746 1.32436 2.41755 1.37056 2.41692C1.50648 2.40467 1.63703 2.35794 1.74986 2.28115C1.86268 2.20436 1.95405 2.10005 2.0153 1.97809C2.07656 1.85613 2.10569 1.72057 2.09993 1.58421C2.09417 1.44786 2.05371 1.31522 1.98238 1.19887C1.90706 1.07525 1.79932 0.97462 1.67087 0.907883C1.60129 0.877731 1.54519 0.823092 1.51322 0.754329C1.48124 0.685566 1.47561 0.607459 1.4974 0.534822C1.58507 0.0498417 1.60372 0.0330514 2.08683 0.130047L14.2001 2.55495C14.5117 2.61837 14.5527 2.68365 14.4855 3.00449L14.4632 3.12573C14.4556 3.20042 14.4216 3.26993 14.3672 3.32162C14.3127 3.37331 14.2415 3.40375 14.1666 3.40739C13.6965 3.48201 13.4111 3.80097 13.4204 4.22813C13.4222 4.36577 13.4597 4.5006 13.5294 4.61932C13.5991 4.73805 13.6984 4.83658 13.8178 4.90524C14.0528 5.05073 14.0677 5.09177 14.0043 5.42379C13.9502 5.67747 13.911 5.71478 13.6517 5.75396C13.4896 5.77579 13.3381 5.84666 13.2174 5.95707C13.0967 6.06749 13.0127 6.21217 12.9765 6.3717C12.9404 6.53124 12.9539 6.698 13.0153 6.84964C13.0766 7.00128 13.1828 7.13054 13.3197 7.22008C13.3829 7.25527 13.4377 7.30363 13.4805 7.3619C13.5233 7.42016 13.5531 7.48695 13.5678 7.55774C13.5825 7.62853 13.5817 7.70165 13.5656 7.77213C13.5496 7.84261 13.5185 7.9088 13.4745 7.96621C13.4436 8.00754 13.4037 8.04129 13.3578 8.06489C13.3119 8.08848 13.2613 8.10131 13.2097 8.10238C13.0417 8.11787 12.883 8.18641 12.7566 8.29808C12.6302 8.40975 12.5426 8.55875 12.5064 8.72352C12.4696 8.89389 12.4887 9.0716 12.561 9.23023C12.6332 9.38886 12.7548 9.51993 12.9075 9.60395C13.094 9.72146 13.1257 9.79048 13.0847 10.0125C13.0735 10.0684 13.0642 10.1244 13.0511 10.1803C13.0481 10.2218 13.0356 10.262 13.0144 10.2978C12.9933 10.3336 12.9641 10.364 12.9292 10.3866C12.8943 10.4092 12.8546 10.4234 12.8133 10.4281C12.772 10.4327 12.7302 10.4277 12.6911 10.4135L4.21328 8.71233C2.95109 8.46362 1.6889 8.21119 0.426712 7.95502C0.29814 7.94252 0.17833 7.88427 0.0890918 7.79087L0.0834961 7.52786ZM10.4807 8.4829C10.5685 8.48449 10.6541 8.45507 10.7223 8.39979C10.7906 8.34452 10.8371 8.26694 10.8538 8.18072C10.8762 8.09678 10.8892 8.00911 10.906 7.9233C11.1721 6.59396 11.4382 5.26338 11.7044 3.93155C11.7242 3.84266 11.7119 3.74961 11.6695 3.66898C11.6272 3.58835 11.5575 3.5254 11.4731 3.49134C11.3937 3.45926 11.3057 3.45547 11.2238 3.4806C11.142 3.50573 11.0712 3.55826 11.0235 3.62937C10.9777 3.70371 10.9484 3.78705 10.9377 3.87372L10.2718 7.18651C10.2177 7.44765 10.1636 7.71066 10.1133 7.9718C10.0648 8.26279 10.2214 8.4829 10.4807 8.4829ZM2.87213 6.56163C2.87213 6.89739 3.05866 7.06527 3.31981 7.02423C3.40324 7.00509 3.4784 6.95988 3.53441 6.89515C3.59042 6.83042 3.62436 6.74954 3.63131 6.66422L4.24686 3.60512C4.31588 3.26377 4.38676 2.92055 4.45204 2.57734C4.47515 2.50834 4.48213 2.43496 4.47243 2.36284C4.46273 2.29073 4.43661 2.22181 4.39609 2.16137C4.35695 2.10113 4.2999 2.05468 4.23298 2.02858C4.16605 2.00247 4.09261 1.99803 4.02303 2.01588C3.93949 2.03495 3.8638 2.07913 3.80611 2.14248C3.74842 2.20584 3.7115 2.28533 3.70033 2.37028C3.48768 3.44719 3.27255 4.52223 3.05493 5.5954C2.99524 5.93862 2.92809 6.28183 2.87213 6.56163Z" fill="#8F8AA0"/>
<path opacity="0.4" d="M12.4285 15.9089L8.06741 13.8925L3.04414 11.5776L0.968049 10.617C0.721829 10.5032 0.684526 10.3969 0.796444 10.1525C0.818828 10.1059 0.841207 10.0593 0.861725 10.0126C0.883436 9.9457 0.928103 9.88859 0.987831 9.85139C1.04756 9.81419 1.11851 9.79928 1.18815 9.80931C1.3158 9.82584 1.4454 9.81889 1.57055 9.78879C1.73471 9.7402 1.87837 9.63906 1.97947 9.50089C2.08057 9.36273 2.1335 9.19519 2.13014 9.02402C2.13014 8.83749 2.13014 8.83749 2.31667 8.87479L11.4958 10.7121C11.8689 10.7849 12.2326 10.8613 12.602 10.9285C12.8076 10.9689 13.0209 10.9282 13.1972 10.8148C13.3735 10.7015 13.4991 10.5243 13.5477 10.3204C13.5701 10.2346 13.5869 10.1488 13.6036 10.063C13.6504 9.88907 13.636 9.70439 13.5631 9.53976C13.4901 9.37512 13.3629 9.24049 13.2026 9.15832C13.0814 9.08371 12.9862 8.99418 13.0161 8.83562C13.0459 8.67707 13.1709 8.62298 13.3201 8.60059C13.4838 8.58957 13.6395 8.52582 13.7639 8.41888C13.8883 8.31195 13.9748 8.16759 14.0103 8.00743C14.042 7.87872 14.0961 7.8694 14.2061 7.92162C14.7098 8.15852 15.2153 8.38981 15.7208 8.62298C15.926 8.71811 15.9595 8.80951 15.8719 9.01656C15.8513 9.06319 15.829 9.10983 15.8084 9.15832C15.7003 9.40081 15.6536 9.42879 15.3831 9.41947C15.2139 9.40083 15.0432 9.43679 14.8958 9.52208C14.7484 9.60738 14.6322 9.73756 14.5641 9.89359C14.496 10.0496 14.4795 10.2234 14.5171 10.3894C14.5548 10.5555 14.6445 10.7051 14.7732 10.8166C14.8382 10.8618 14.8828 10.9309 14.8971 11.0088C14.9114 11.0867 14.8944 11.1671 14.8497 11.2325C14.8273 11.2829 14.7993 11.3333 14.7788 11.3855C14.7564 11.4551 14.7094 11.5142 14.6465 11.5517C14.5837 11.5891 14.5093 11.6023 14.4374 11.5888C14.2266 11.5564 14.0113 11.605 13.8349 11.725C13.7418 11.7921 13.6641 11.8785 13.6071 11.9782C13.5501 12.0779 13.5151 12.1886 13.5045 12.303C13.4939 12.4173 13.5079 12.5326 13.5456 12.6411C13.5833 12.7496 13.6438 12.8487 13.723 12.9318C13.7738 12.9829 13.8133 13.0441 13.8389 13.1113C13.8646 13.1786 13.8758 13.2505 13.872 13.3224C13.8681 13.3943 13.8492 13.4646 13.8165 13.5287C13.7837 13.5929 13.7379 13.6494 13.682 13.6947C13.5845 13.7549 13.4673 13.7744 13.3556 13.7488C13.203 13.7337 13.0494 13.7647 12.9147 13.8378C12.78 13.911 12.6704 14.023 12.6001 14.1592C12.5188 14.3038 12.4848 14.4703 12.5029 14.6352C12.5209 14.8001 12.5901 14.9552 12.7008 15.0788C12.9396 15.3567 12.9377 15.5731 12.6878 15.8529L12.6337 15.9089H12.4285Z" fill="#8F8AA0"/>
</svg>
