<svg width="15" height="14" viewBox="0 0 15 14" fill="none" xmlns="http://www.w3.org/2000/svg">
<path d="M12.6875 3.48832C10.745 3.29582 8.79083 3.19666 6.8425 3.19666C5.6875 3.19666 4.5325 3.25499 3.3775 3.37166L2.1875 3.48832" stroke="#8F8AA0" stroke-linecap="round" stroke-linejoin="round"/>
<path d="M5.396 2.89913L5.52433 2.13496C5.61766 1.58079 5.68766 1.16663 6.6735 1.16663H8.20183C9.18766 1.16663 9.2635 1.60413 9.351 2.14079L9.47933 2.89913" stroke="#8F8AA0" stroke-linecap="round" stroke-linejoin="round"/>
<path d="M11.4336 5.33167L11.0544 11.2058C10.9902 12.1217 10.9377 12.8333 9.31023 12.8333H5.56523C3.93773 12.8333 3.88523 12.1217 3.82106 11.2058L3.44189 5.33167" stroke="#8F8AA0" stroke-linecap="round" stroke-linejoin="round"/>
<path d="M6.46338 9.625H8.40588" stroke="#8F8AA0" stroke-linecap="round" stroke-linejoin="round"/>
<path d="M5.979 7.29163H8.89567" stroke="#8F8AA0" stroke-linecap="round" stroke-linejoin="round"/>
</svg>
