<svg width="17" height="16" viewBox="0 0 17 16" fill="none" xmlns="http://www.w3.org/2000/svg">
<path d="M14.9236 3.48683C13.8502 3.38016 12.7769 3.30016 11.6969 3.24016V3.2335L11.5502 2.36683C11.4502 1.7535 11.3036 0.833496 9.74356 0.833496H7.9969C6.44356 0.833496 6.29689 1.7135 6.19023 2.36016L6.05023 3.2135C5.43023 3.2535 4.81023 3.2935 4.19023 3.3535L2.83023 3.48683C2.55023 3.5135 2.35023 3.76016 2.3769 4.0335C2.40356 4.30683 2.64356 4.50683 2.92356 4.48016L4.28356 4.34683C7.7769 4.00016 11.2969 4.1335 14.8302 4.48683C14.8502 4.48683 14.8636 4.48683 14.8836 4.48683C15.1369 4.48683 15.3569 4.2935 15.3836 4.0335C15.4036 3.76016 15.2036 3.5135 14.9236 3.48683Z" fill="#7055DA"/>
<path opacity="0.3991" d="M13.6976 5.42699C13.5376 5.26033 13.3176 5.16699 13.0909 5.16699H4.66427C4.4376 5.16699 4.21093 5.26033 4.0576 5.42699C3.90427 5.59366 3.8176 5.82033 3.83093 6.05366L4.24427 12.8937C4.3176 13.907 4.41093 15.1737 6.7376 15.1737H11.0176C13.3443 15.1737 13.4376 13.9137 13.5109 12.8937L13.9243 6.06033C13.9376 5.82033 13.8509 5.59366 13.6976 5.42699Z" fill="#7055DA"/>
<path fill-rule="evenodd" clip-rule="evenodd" d="M7.26514 11.3335C7.26514 11.0574 7.48899 10.8335 7.76514 10.8335H9.98514C10.2613 10.8335 10.4851 11.0574 10.4851 11.3335C10.4851 11.6096 10.2613 11.8335 9.98514 11.8335H7.76514C7.48899 11.8335 7.26514 11.6096 7.26514 11.3335Z" fill="#7055DA"/>
<path fill-rule="evenodd" clip-rule="evenodd" d="M6.71045 8.66699C6.71045 8.39085 6.93431 8.16699 7.21045 8.16699H10.5438C10.8199 8.16699 11.0438 8.39085 11.0438 8.66699C11.0438 8.94313 10.8199 9.16699 10.5438 9.16699H7.21045C6.93431 9.16699 6.71045 8.94313 6.71045 8.66699Z" fill="#7055DA"/>
</svg>
