<svg width="20" height="20" viewBox="0 0 20 20" fill="none" xmlns="http://www.w3.org/2000/svg">
<path opacity="0.4" d="M5.64859 18.9098C5.61859 18.9098 5.57859 18.9298 5.54859 18.9298C3.60859 17.9698 2.02859 16.3798 1.05859 14.4398C1.05859 14.4098 1.07859 14.3698 1.07859 14.3398C2.29859 14.6998 3.55859 14.9698 4.80859 15.1798C5.02859 16.4398 5.28859 17.6898 5.64859 18.9098Z" fill="#7055DA"/>
<path opacity="0.4" d="M18.9391 14.4498C17.9491 16.4398 16.2991 18.0498 14.2891 19.0198C14.6691 17.7498 14.9891 16.4698 15.1991 15.1798C16.4591 14.9698 17.6991 14.6998 18.9191 14.3398C18.9091 14.3798 18.9391 14.4198 18.9391 14.4498Z" fill="#7055DA"/>
<path opacity="0.4" d="M19.0191 5.71047C17.7591 5.33047 16.4891 5.02047 15.1991 4.80047C14.9891 3.51047 14.6791 2.23047 14.2891 0.980469C16.3591 1.97047 18.0291 3.64047 19.0191 5.71047Z" fill="#7055DA"/>
<path opacity="0.4" d="M5.65047 1.09055C5.29047 2.31055 5.03047 3.55055 4.82047 4.81055C3.53047 5.01055 2.25047 5.33055 0.980469 5.71055C1.95047 3.70055 3.56047 2.05055 5.55047 1.06055C5.58047 1.06055 5.62047 1.09055 5.65047 1.09055Z" fill="#7055DA"/>
<path d="M13.4917 4.59C11.1717 4.33 8.83172 4.33 6.51172 4.59C6.76172 3.22 7.08172 1.85 7.53172 0.53C7.55172 0.45 7.54172 0.39 7.55172 0.31C8.34172 0.12 9.15172 0 10.0017 0C10.8417 0 11.6617 0.12 12.4417 0.31C12.4517 0.39 12.4517 0.45 12.4717 0.53C12.9217 1.86 13.2417 3.22 13.4917 4.59Z" fill="#7055DA"/>
<path d="M4.59 13.4898C3.21 13.2398 1.85 12.9198 0.53 12.4698C0.45 12.4498 0.39 12.4598 0.31 12.4498C0.12 11.6598 0 10.8498 0 9.99977C0 9.15977 0.12 8.33977 0.31 7.55977C0.39 7.54977 0.45 7.54977 0.53 7.52977C1.86 7.08977 3.21 6.75977 4.59 6.50977C4.34 8.82977 4.34 11.1698 4.59 13.4898Z" fill="#7055DA"/>
<path d="M20.0002 9.99977C20.0002 10.8498 19.8802 11.6598 19.6902 12.4498C19.6102 12.4598 19.5502 12.4498 19.4702 12.4698C18.1402 12.9098 16.7802 13.2398 15.4102 13.4898C15.6702 11.1698 15.6702 8.82977 15.4102 6.50977C16.7802 6.75977 18.1502 7.07977 19.4702 7.52977C19.5502 7.54977 19.6102 7.55977 19.6902 7.55977C19.8802 8.34977 20.0002 9.15977 20.0002 9.99977Z" fill="#7055DA"/>
<path d="M13.4917 15.4102C13.2417 16.7902 12.9217 18.1502 12.4717 19.4702C12.4517 19.5502 12.4517 19.6102 12.4417 19.6902C11.6617 19.8802 10.8417 20.0002 10.0017 20.0002C9.15172 20.0002 8.34172 19.8802 7.55172 19.6902C7.54172 19.6102 7.55172 19.5502 7.53172 19.4702C7.09172 18.1402 6.76172 16.7902 6.51172 15.4102C7.67172 15.5402 8.83172 15.6302 10.0017 15.6302C11.1717 15.6302 12.3417 15.5402 13.4917 15.4102Z" fill="#7055DA"/>
<path d="M13.7633 13.7633C11.2622 14.0789 8.73776 14.0789 6.23667 13.7633C5.92111 11.2622 5.92111 8.73776 6.23667 6.23667C8.73776 5.92111 11.2622 5.92111 13.7633 6.23667C14.0789 8.73776 14.0789 11.2622 13.7633 13.7633Z" fill="#7055DA"/>
</svg>
