<svg width="20" height="20" viewBox="0 0 20 20" fill="none" xmlns="http://www.w3.org/2000/svg">
<path d="M17.3297 3.67954L11.0597 0.299541C10.3997 -0.060459 9.59969 -0.060459 8.93969 0.299541L2.66969 3.67954C2.20969 3.92954 1.92969 4.40954 1.92969 4.95954C1.92969 5.49954 2.20969 5.98954 2.66969 6.23954L8.93969 9.61954C9.26969 9.79954 9.63969 9.88954 9.99969 9.88954C10.3597 9.88954 10.7297 9.79954 11.0597 9.61954L17.3297 6.23954C17.7897 5.98954 18.0697 5.50954 18.0697 4.95954C18.0697 4.40954 17.7897 3.92954 17.3297 3.67954Z" fill="#7055DA"/>
<path opacity="0.4" d="M7.91 10.7902L2.07 7.87024C1.62 7.65024 1.1 7.67024 0.68 7.93024C0.25 8.20024 0 8.65024 0 9.15024V14.6602C0 15.6102 0.53 16.4702 1.38 16.9002L7.21 19.8202C7.41 19.9202 7.63 19.9702 7.85 19.9702C8.11 19.9702 8.37 19.9002 8.6 19.7602C9.03 19.5002 9.28 19.0402 9.28 18.5402V13.0302C9.29 12.0702 8.76 11.2102 7.91 10.7902Z" fill="#7055DA"/>
<path opacity="0.4" d="M19.3187 7.93038C18.8887 7.67038 18.3688 7.64038 17.9288 7.87038L12.0988 10.7904C11.2488 11.2204 10.7188 12.0704 10.7188 13.0304V18.5404C10.7188 19.0404 10.9687 19.5004 11.3987 19.7604C11.6287 19.9004 11.8887 19.9704 12.1487 19.9704C12.3687 19.9704 12.5887 19.9204 12.7887 19.8204L18.6188 16.9004C19.4688 16.4704 19.9987 15.6204 19.9987 14.6604V9.15038C19.9987 8.65038 19.7487 8.20038 19.3187 7.93038Z" fill="#7055DA"/>
</svg>
