<svg width="12" height="12" viewBox="0 0 12 12" fill="none" xmlns="http://www.w3.org/2000/svg">
<path fill-rule="evenodd" clip-rule="evenodd" d="M5.4265 0.0245917C4.02674 0.16817 2.75298 0.771146 1.76282 1.75894C0.814957 2.70451 0.233004 3.88669 0.0442852 5.24996C0.0038789 5.54185 0.0038789 6.45807 0.0442852 6.74996C0.232863 8.11222 0.81566 9.29609 1.76282 10.241C2.71637 11.1922 3.87329 11.7597 5.26243 11.9574C5.54085 11.9971 6.46161 11.9964 6.75071 11.9564C9.15053 11.6242 11.0555 10.0041 11.7533 7.70187C11.8517 7.37736 11.9489 6.8734 11.9697 6.58029C11.9778 6.46646 11.9934 6.36779 12.0043 6.36104C12.0152 6.35429 12.0242 6.18001 12.0242 5.97376C12.0242 5.76751 12.0152 5.60431 12.0042 5.61111C11.9932 5.6179 11.9776 5.53102 11.9696 5.41805C11.9083 4.55384 11.5448 3.51408 11.0301 2.73043C10.0677 1.26519 8.57511 0.314232 6.83275 0.0562557C6.54613 0.0138104 5.71421 -0.00491612 5.4265 0.0245917ZM5.59056 0.951873C5.10845 1.00245 4.68718 1.09465 4.3015 1.23399C2.53112 1.87355 1.29613 3.37322 0.992379 5.25228C0.937793 5.5899 0.937793 6.41002 0.992379 6.74764C1.45696 9.62162 4.1275 11.5095 6.96165 10.9674C9.69885 10.4439 11.4996 7.77894 10.9674 5.03902C10.5587 2.93445 8.88735 1.32713 6.76243 0.995185C6.53549 0.959748 5.78122 0.931857 5.59056 0.951873ZM5.76836 3.2277C5.64744 3.2704 5.49182 3.41743 5.42638 3.55074C5.36017 3.68567 5.36253 3.96174 5.43102 4.09104C5.63535 4.4768 6.14741 4.56406 6.44223 4.26336C6.57714 4.12576 6.62066 4.01806 6.62127 3.82027C6.62174 3.66865 6.61225 3.62724 6.55227 3.51896C6.51404 3.44994 6.44607 3.36322 6.40126 3.32626C6.23891 3.19245 5.98159 3.15237 5.76836 3.2277ZM5.85158 5.04992C5.73606 5.0911 5.63164 5.18923 5.5764 5.30855C5.5355 5.39689 5.53297 5.49514 5.53248 7.00995L5.53196 8.61758L5.5865 8.72089C5.61648 8.7777 5.68595 8.85582 5.74086 8.89449C5.82819 8.95601 5.86072 8.9648 6.00071 8.9648C6.14071 8.9648 6.17324 8.95601 6.26057 8.89449C6.31548 8.85582 6.38495 8.7777 6.41493 8.72089L6.46946 8.61758L6.46895 7.00995C6.46846 5.50562 6.46569 5.39626 6.42575 5.30834C6.37208 5.19019 6.23961 5.07242 6.12439 5.04043C6.01037 5.00876 5.96235 5.01043 5.85158 5.04992ZM0.0102539 5.99996C0.0102539 6.21265 0.0138164 6.29968 0.0181523 6.19332C0.0224883 6.08696 0.0224883 5.91294 0.0181523 5.8066C0.0138164 5.70026 0.0102539 5.78726 0.0102539 5.99996Z" fill="#8F8AA0"/>
</svg>
