<svg width="20" height="20" viewBox="0 0 20 20" fill="none" xmlns="http://www.w3.org/2000/svg">
<path opacity="0.4" d="M17.7084 4.80842V7.50008C17.7084 9.40841 17.1001 10.0168 15.1917 10.0168H15.1084V8.65009C15.1084 6.05009 13.9501 4.89174 11.3501 4.89174H9.9834V4.80842C9.9834 2.90008 10.5917 2.29175 12.5001 2.29175H15.1917C17.1001 2.29175 17.7084 2.90008 17.7084 4.80842Z" fill="#8F8AA0"/>
<path d="M13.8583 8.64994V11.3499C13.8583 13.2499 13.2499 13.8583 11.3499 13.8583H8.64994C6.74994 13.8583 6.1416 13.2499 6.1416 11.3499V8.64994C6.1416 6.74994 6.74994 6.1416 8.64994 6.1416H11.3499C13.2499 6.1416 13.8583 6.74994 13.8583 8.64994Z" fill="#8F8AA0"/>
<path opacity="0.4" d="M10.0165 15.1084V15.1917C10.0165 17.1001 9.40817 17.7084 7.49984 17.7084H4.80817C2.89984 17.7084 2.2915 17.1001 2.2915 15.1917V12.5001C2.2915 10.5917 2.89984 9.9834 4.80817 9.9834H4.8915V11.3501C4.8915 13.9501 6.04984 15.1084 8.64984 15.1084H10.0165Z" fill="#8F8AA0"/>
</svg>
