<svg width="16" height="16" viewBox="0 0 16 16" fill="none" xmlns="http://www.w3.org/2000/svg">
<path opacity="0.4" d="M6.33969 2.82009L12.0464 5.67342C14.6064 6.95342 14.6064 9.04676 12.0464 10.3268L6.33969 13.1801C2.49969 15.1001 0.933021 13.5268 2.85302 9.69342L3.43302 8.54009C3.59969 8.20009 3.59969 7.80676 3.43302 7.46676L2.85302 6.30676C0.933021 2.47342 2.50635 0.90009 6.33969 2.82009Z" fill="white"/>
<path d="M9.89346 8.5H6.29346C6.02012 8.5 5.79346 8.27333 5.79346 8C5.79346 7.72667 6.02012 7.5 6.29346 7.5H9.89346C10.1668 7.5 10.3935 7.72667 10.3935 8C10.3935 8.27333 10.1668 8.5 9.89346 8.5Z" fill="white"/>
</svg>
