<svg width="13" height="12" viewBox="0 0 13 12" fill="none" xmlns="http://www.w3.org/2000/svg">
<path opacity="0.4" d="M8.91016 0.955078H4.09016C3.03016 0.955078 2.16016 1.82508 2.16016 2.88508V9.93008C2.16016 10.8301 2.80516 11.2101 3.59516 10.7751L6.03516 9.42008C6.29516 9.27508 6.71516 9.27508 6.97016 9.42008L9.41016 10.7751C10.2002 11.2151 10.8452 10.8351 10.8452 9.93008V2.88508C10.8402 1.82508 9.97516 0.955078 8.91016 0.955078Z" fill="#8F8AA0"/>
<path d="M6.04514 6.62522C5.95014 6.62522 5.85514 6.59021 5.78014 6.51521L5.03014 5.76521C4.88514 5.62021 4.88514 5.38022 5.03014 5.23522C5.17514 5.09022 5.41514 5.09022 5.56014 5.23522L6.04514 5.72021L7.78014 3.98521C7.92514 3.84021 8.16514 3.84021 8.31014 3.98521C8.45514 4.13021 8.45514 4.37021 8.31014 4.51521L6.31014 6.51521C6.23514 6.59021 6.14014 6.62522 6.04514 6.62522Z" fill="#8F8AA0"/>
</svg>
