<svg width="13" height="12" viewBox="0 0 13 12" fill="none" xmlns="http://www.w3.org/2000/svg">
<path opacity="0.4" d="M10.7001 8.1649C10.5601 8.5399 10.2651 8.8249 9.8801 8.9549C9.3401 9.1349 8.7851 9.2699 8.2251 9.3649C8.1701 9.3749 8.1151 9.3849 8.0601 9.3899C7.9701 9.4049 7.8801 9.4149 7.7901 9.4249C7.6801 9.4399 7.5651 9.4499 7.4501 9.4599C7.1351 9.4849 6.8251 9.4999 6.5101 9.4999C6.1901 9.4999 5.8701 9.4849 5.5551 9.4549C5.4201 9.4449 5.2901 9.4299 5.1601 9.4099C5.0851 9.3999 5.0101 9.3899 4.9401 9.3799C4.8851 9.3699 4.8301 9.3649 4.7751 9.3549C4.2201 9.2649 3.6701 9.1299 3.1351 8.9499C2.7351 8.8149 2.4301 8.5299 2.2951 8.1649C2.1601 7.8049 2.2101 7.3849 2.4251 7.0249L2.9901 6.0849C3.1101 5.8799 3.2201 5.4849 3.2201 5.2449V4.3149C3.2201 2.4999 4.6951 1.0249 6.5101 1.0249C8.3201 1.0249 9.7951 2.4999 9.7951 4.3149V5.2449C9.7951 5.4849 9.9051 5.8799 10.0301 6.0849L10.5951 7.0249C10.8001 7.3749 10.8401 7.7849 10.7001 8.1649Z" fill="#8F8AA0"/>
<path d="M6.50012 5.37982C6.29012 5.37982 6.12012 5.20982 6.12012 4.99982V3.44982C6.12012 3.23982 6.29012 3.06982 6.50012 3.06982C6.71012 3.06982 6.88012 3.23982 6.88012 3.44982V4.99982C6.87512 5.20982 6.70512 5.37982 6.50012 5.37982Z" fill="#8F8AA0"/>
<path d="M7.91484 10.005C7.70484 10.585 7.14984 11 6.49984 11C6.10484 11 5.71484 10.84 5.43984 10.555C5.27984 10.405 5.15984 10.205 5.08984 10C5.15484 10.01 5.21984 10.015 5.28984 10.025C5.40484 10.04 5.52484 10.055 5.64484 10.065C5.92984 10.09 6.21984 10.105 6.50984 10.105C6.79484 10.105 7.07984 10.09 7.35984 10.065C7.46484 10.055 7.56984 10.05 7.66984 10.035C7.74984 10.025 7.82984 10.015 7.91484 10.005Z" fill="#8F8AA0"/>
</svg>
