<svg width="13" height="12" viewBox="0 0 13 12" fill="none" xmlns="http://www.w3.org/2000/svg">
<path opacity="0.4" d="M6.94501 2.93994H3.05499C2.19999 2.93994 1.5 3.63993 1.5 4.49493V10.1749C1.5 10.8999 2.02 11.2099 2.655 10.8549L4.62 9.75993C4.83 9.64493 5.17 9.64493 5.375 9.75993L7.34 10.8549C7.975 11.2099 8.495 10.8999 8.495 10.1749V4.49493C8.5 3.63993 7.80001 2.93994 6.94501 2.93994Z" fill="#8F8AA0"/>
<path d="M11.5 2.55499V8.235C11.5 8.96 10.98 9.26499 10.345 8.91499L8.5 7.88499V4.495C8.5 3.64 7.80001 2.94 6.94501 2.94H4.5V2.55499C4.5 1.69999 5.19999 1 6.05499 1H9.94501C10.8 1 11.5 1.69999 11.5 2.55499Z" fill="#8F8AA0"/>
</svg>
